<?xml version="1.0" encoding="UTF-8" standalone="no"?>
<!-- Created with Inkscape (http://www.inkscape.org/) -->
<svg xmlns:rdf="http://www.w3.org/1999/02/22-rdf-syntax-ns#" xmlns="http://www.w3.org/2000/svg" height="100" width="100" version="1.1" xmlns:cc="http://creativecommons.org/ns#" xmlns:dc="http://purl.org/dc/elements/1.1/" viewBox="0 0 100 100.01556">
<ellipse style="stroke-linejoin:round;stroke:#ffc0cb;stroke-linecap:round;stroke-width:3.544;fill:#ffe6ea" rx="48.14" ry="48.44" cy="50.47" cx="49.85"/>
<path style="fill:#202020" d="m27.48 78.4c0.1488-0.05201 0.1504-0.1935 0.0036-0.3144-0.1469-0.1209-0.1052-0.42 0.09247-0.6643 0.3072-0.3798 0.2787-0.4187-0.1964-0.2675-0.4914 0.1564-0.5194 0.1317-0.2417-0.2125 0.183-0.2268 0.0775-0.6195-0.2526-0.9407-0.3118-0.3032-0.8712-1.301-1.243-2.216-0.3717-0.9156-1.079-2.216-1.572-2.889-0.7772-1.062-0.8268-1.331-0.3746-2.028 0.3373-0.5201 0.727-0.7666 1.104-0.6987 0.3759 0.06787 0.8699-0.2432 1.391-0.876 0.4445-0.5397 0.9822-0.9575 1.195-0.9285 0.2128 0.02897 1.32 0.5915 2.462 1.25l2.075 1.197 2.133-2.252c2.869-3.028 3.495-4.132 3.634-6.417 0.1517-2.469 1.573-4.728 3.769-5.986 0.7924-0.4544 1.617-0.8072 1.833-0.7837 0.2159 0.02341-0.1025-0.4937-0.7077-1.149s-1.392-1.591-1.749-2.079c-0.3907-0.5339-0.6681-0.7476-0.6968-0.5365-0.02627 0.193-0.2247 0.2053-0.4409 0.02726-0.2163-0.178-0.2997-0.4371-0.1855-0.5758s-0.1684-0.5619-0.6279-0.9401c-0.4596-0.3785-1.945-1.87-3.302-3.315-4.892-5.211-5.687-5.922-6.527-5.838-0.4213 0.0408-0.7875 0.2316-0.8139 0.4239-0.02619 0.1924-0.1649 0.2533-0.3082 0.1352-0.301-0.2479-2.384 0.5687-2.1 0.8229 0.1041 0.09282-0.1045 0.1209-0.4638 0.06237-0.3592-0.05852-0.8719 0.1595-1.14 0.4847-0.4506 0.5474-0.9085 0.5851-1.59 0.1317-0.335-0.2233 1.343-2.321 1.833-2.291 0.1935 0.01162 1.115-0.8783 2.048-1.978 0.9501-1.12 1.746-1.854 1.808-1.67 0.06176 0.1813 0.3087-0.03172 0.551-0.4754 0.2415-0.4422 1.075-1.26 1.853-1.817 0.7776-0.5571 2.194-1.988 3.148-3.181 1.289-1.611 1.501-1.98 0.8245-1.437-0.7039 0.5655-0.5877 0.3489 0.5111-0.9552 1.192-1.414 1.517-1.648 2.012-1.45 0.3251 0.1304 0.6002 0.3328 0.6115 0.4496 0.01131 0.1169-0.5584 1.484-1.266 3.037-1.203 2.642-1.899 4.795-1.536 4.757 0.1756-0.01895 1.824 1.714 3.479 3.659 0.5915 0.6948 1.764 1.931 2.605 2.746 0.841 0.8159 2.116 2.158 2.833 2.983 1.633 1.878 4.567 4.319 5.011 4.168 0.466-0.1587 4.229-3.434 5.902-5.14 1.908-1.942 5.507-5.416 7.463-7.206 0.8937-0.8175 3.769-4.094 6.392-7.277 2.815-3.421 5.079-5.951 5.526-6.182 0.6791-0.3495 0.6704-0.3004-0.08243 0.4757-0.4618 0.476-0.7045 0.8841-0.5388 0.9066 0.1655 0.02254 0.5597-0.2584 0.8757-0.6244 0.5571-0.645 0.5674-0.6421 0.3354 0.09012-0.1316 0.4155-0.4445 0.8719-0.6955 1.014-0.251 0.1422-0.3588 0.3386-0.2399 0.4361 0.119 0.09768-0.943 1.508-2.36 3.135-1.589 1.824-2.481 3.035-2.329 3.16 0.151 0.1244-0.7824 1.413-2.4 3.312-1.456 1.71-2.545 3.193-2.421 3.296 0.1241 0.1022-0.2247 0.5767-0.7753 1.054-0.6598 0.5722-0.9073 0.9456-0.7257 1.095 0.1514 0.1247-0.0029 0.5214-0.3428 0.8815-1.44 1.526-2.313 2.904-1.875 2.963 0.3163 0.04307 0.1845 0.2843-0.4686 0.8583-0.4998 0.4393-0.8094 0.8802-0.6881 0.98 0.1212 0.09983-0.171 0.5256-0.6495 0.9462-0.5812 0.5108-0.7714 0.8458-0.5735 1.009 0.2024 0.1666 0.01317 0.4811-0.5957 0.9903-0.5587 0.4673-0.7936 0.8274-0.6279 0.9639 0.1613 0.1328-0.07477 0.5159-0.6057 0.9822-0.5928 0.5211-0.7727 0.8448-0.5648 1.016s0.05368 0.449-0.484 0.8709c-0.4966 0.3897-0.6881 0.7029-0.5169 0.8439 0.1497 0.1233 0.127 0.3428-0.05041 0.4876-0.1953 0.1594-0.06394 0.4564 0.3328 0.7521 0.5452 0.4068 9.346 6.057 11.21 7.196 0.3095 0.1893 1.319 0.829 2.242 1.421 0.9237 0.5925 1.861 1.098 2.083 1.124 0.5201 0.06083 4.165-2.131 4.129-2.484-0.0143-0.1474 0.2015-0.3116 0.4795-0.365 0.278-0.05323 0.8947-0.5149 1.37-1.026 0.7772-0.8352 1.793-1.173 2.323-0.773 0.1077 0.08123-0.9877 1.601-2.434 3.376-1.823 2.238-2.429 3.135-1.975 2.923 0.5989-0.2808 0.6041-0.2649 0.06056 0.1858-0.327 0.271-0.8796 1.149-1.228 1.951-0.8799 2.023-8.155 11.19-8.715 10.98-0.4306-0.1621-0.4264-0.1794 1.19-4.834l1.086-3.126-2.412-1.864c-1.327-1.025-2.513-1.803-2.636-1.728-0.1235 0.07487-0.5819-0.2356-1.019-0.69-0.4367-0.4544-0.8857-0.7148-0.998-0.5787-0.1184 0.1438-0.7798-0.2909-1.579-1.038-1.04-0.9723-1.303-1.122-1.08-0.6154 0.265 0.6025 0.2422 0.6063-0.2264 0.03656-0.7673-0.9327-3.669-2.779-3.724-2.37-0.02816 0.2067-0.4226-0.06431-0.9587-0.6588-0.6533-0.7245-1.103-0.9913-1.59-0.9443-0.7161 0.06931-1.288 1.071-0.6611 1.157 0.2013 0.02742 0.2133 0.1812 0.02669 0.3418-0.1867 0.1606-0.6028 0.7924-0.9246 1.404-0.7335 1.394-2.665 2.851-4.319 3.26-0.6791 0.1675-1.717 0.7602-2.307 1.317-0.5896 0.5568-1.225 0.9533-1.412 0.8818-0.2068-0.07953-0.3133 0.1372-0.2729 0.5552 0.0419 0.4329-0.3592 1.221-1.087 2.138-1.998 2.515-2.031 2.795-0.5252 4.435 1.379 1.5 1.598 2.388 0.8281 3.35-0.2433 0.3046-0.2784 0.7611-0.07965 1.036 0.256 0.354 0.1398 0.7869-0.4155 1.548-0.9391 1.288-1.792 1.372-3.025 0.2961-0.6018-0.5249-0.8252-0.6034-0.709-0.2499 0.1281 0.3897 0.02791 0.4013-0.4087 0.04653-0.3181-0.2585-0.783-0.354-1.033-0.2121-0.2502 0.1417-0.5001 0.1245-0.5558-0.03837-0.05549-0.1628-0.428-0.2644-0.8278-0.2257-0.3997 0.03868-0.662-0.0084-0.5828-0.1046 0.07924-0.09623-0.1123-0.174-0.4255-0.1728-0.3133 0.0014-0.5819-0.1231-0.5967-0.2761-0.01483-0.1531-0.4979-0.2889-1.073-0.3018-0.5754-0.01287-1.036 0.08196-1.024 0.2107 0.01246 0.1288-0.4692-0.195-1.07-0.7196-0.6012-0.5246-0.9713-0.9964-0.8226-1.048zm2.041 0.6488c-0.1905-0.2633-0.5877-0.5902-0.8825-0.7267-0.2949-0.1364-0.1391 0.07897 0.3463 0.4786s0.7267 0.5114 0.5362 0.2481zm2.781 0.201c0.466-0.2943-0.6948-1.582-1.524-1.691-0.5252-0.069-0.7541-0.2683-0.9381-0.8165-0.1338-0.3988-0.4152-0.8667-0.625-1.04-0.5297-0.4361-1.051 0.2967-0.6321 0.8892 0.6385 0.9034 3.386 2.868 3.72 2.658zm-4.432-4.216c0.3334-0.4049 0.2472-0.6427-0.4364-1.206-1.238-1.02-1.11-1.651 0.7518-3.714l1.608-1.783-0.8393-0.5223c-1.06-0.6598-1.938-0.4731-2.822 0.6002-0.4248 0.5162-0.8863 0.7779-1.191 0.6759-0.9375-0.3133-1.046 0.4847-0.1985 1.462 0.4628 0.5333 1.181 1.8 1.596 2.815 0.9063 2.217 0.9996 2.319 1.532 1.673zm5.593 5.027c0.3187 0.03688 0.466-0.02643 0.3273-0.1406s-0.513-0.2378-0.8316-0.2747c-0.3187-0.03688-0.466 0.02643-0.3273 0.1406s0.513 0.2378 0.8316 0.2747zm-0.3743-5.062 0.6273-1.289-1.363 1.628c-1.119 1.337-1.231 1.567-0.6273 1.289 0.5143-0.2374 0.9243-0.727 1.363-1.628zm-0.4715-1.261c1.969-2.714 2.672-3.231 2.786-2.055 0.03852 0.3981 0.4264 1.017 0.8622 1.376 0.6749 0.5558 0.8484 0.5594 1.174 0.02465 0.2727-0.4483 0.1645-0.999-0.3791-1.929-0.4184-0.7158-0.7296-1.548-0.6919-1.85 0.03778-0.3014 0.7856-1.422 1.662-2.491 1.615-1.969 1.954-3.022 0.6681-2.072-0.5124 0.3782-0.8023 0.3833-1.066 0.01896-0.3059-0.4229-0.5516-0.3198-1.581 0.6633-0.6707 0.6405-1.804 1.872-2.519 2.738-1.087 1.316-1.377 1.521-1.772 1.249-0.2599-0.179-0.01789 0.163 0.5378 0.7602l1.01 1.086-1.678 1.858c-1.485 1.645-1.636 1.916-1.311 2.363 0.202 0.2773 0.4 0.5532 0.44 0.6131 0.03997 0.0599 0.8767-0.999 1.859-2.353zm4.242 6.572c0.2032-0.06923 0.4071-0.01423 0.4531 0.1222 0.04613 0.1365 0.5722-0.4271 1.169-1.252 0.597-0.8249 1.024-1.69 0.9488-1.923-0.07496-0.2327-1.143-1.255-2.374-2.272l-2.237-1.849-0.803 1.302c-0.4416 0.7161-1.023 1.57-1.293 1.897-0.4763 0.5783-0.4303 0.6443 1.638 2.348 1.171 0.9639 2.295 1.696 2.498 1.627zm-6.746-6.984c0.3856-0.4679 1.048-1.134 1.471-1.48 0.7676-0.6266 0.7663-0.6318-0.4045-1.564l-1.18-0.94-1.305 1.584-1.305 1.584 1.009 0.8307c0.9774 0.8049 1.03 0.8043 1.709-0.02047zm8.416 1.735c-0.1138-0.2096-0.4509-0.494-0.7489-0.6324-0.298-0.1381-0.2048 0.03347 0.207 0.3811 0.4119 0.3479 0.6556 0.4609 0.5416 0.2511zm0.05037-5.851c0.6691-0.8123 0.8323-1.202 0.55-1.31-0.5017-0.1932-1.19 0.3595-1.647 1.322-0.5816 1.226 0.08361 1.219 1.097-0.01171zm1.923-2.849c0.2217-0.2692 0.2896-0.5828 0.1509-0.6971-0.1387-0.1142-0.4911 0.08274-0.7837 0.4377-0.3014 0.3659-0.3666 0.6678-0.1509 0.6971 0.2093 0.02848 0.5619-0.1684 0.7837-0.4377zm-1.6-4.71c0.1335-0.4535 0.2492-1.335 0.2571-1.959 0.02141-1.683 1.619-3.852 3.411-4.631 0.766-0.3331 1.713-0.5413 2.104-0.4631 0.3914 0.07834 1.445-0.06793 2.342-0.3251l1.63-0.4673 2.938-3.698c1.616-2.034 5.056-6.334 7.644-9.555 4.892-6.092 4.834-6.157-0.6514-0.7479-7.718 7.611-9.465 9.002-10.47 8.336-1.356-0.8979-4.412-3.878-5.857-5.709-0.4496-0.57-1.053-1.079-1.342-1.131-0.3292-0.05948 0.1378 0.6491 1.255 1.903 2.475 2.779 2.493 2.957 0.4905 4.782l-1.623 1.479 0.6775 0.756c0.3727 0.4158 1.15 1.257 1.727 1.869 0.7856 0.8339 0.9793 1.264 0.7718 1.713-0.1601 0.3463-0.5059 0.5584-0.8187 0.5017-0.2978-0.05378-0.699 0.0438-0.8915 0.2169-0.1926 0.173-0.5597 0.3849-0.8162 0.4708-0.2562 0.0859-1.031 0.7138-1.721 1.395-1.188 1.173-1.263 1.362-1.411 3.55-0.08587 1.271-0.2913 2.502-0.4564 2.736-0.2722 0.3846-0.2596 0.3952 0.1346 0.1142 0.2392-0.1705 0.5439-0.681 0.6775-1.135zm7.405-9.745c0.2001-0.4219 0.671-0.8934 1.046-1.048 0.542-0.2231 0.7376-0.1469 0.9507 0.3708 0.3936 0.9562 0.2756 1.256-0.6752 1.712-1.088 0.522-1.797-0.03276-1.322-1.035zm-6.17 10.83c-0.05731 0.458-0.01958 0.4831 0.2437 0.1635 0.1713-0.208 0.3399-0.6405 0.3746-0.961 0.09198-0.8487-0.7927-0.4995-1.325 0.523-0.4107 0.7888-0.4094 0.7911 0.1802 0.264 0.4576-0.4091 0.5787-0.4065 0.5265 0.01047zm2.732 1.554c0.3218-0.5841 0.4702-1.051 0.3296-1.038-0.1405 0.01362-0.5188 0.5027-0.8406 1.087-0.3218 0.5841-0.4702 1.051-0.3296 1.038 0.1405-0.01362 0.5188-0.5027 0.8406-1.087zm-0.9803-0.4103c0.8638-0.6379 0.8641-0.7528 0.0027-1.151-0.4586-0.2121-0.8355-0.1193-1.171 0.2883-0.7106 0.8628 0.2287 1.557 1.168 0.8628zm3.975 0.8075c0.6041-0.2835 1.536-1.078 2.072-1.765l0.9739-1.25-1.357 1.274c-0.746 0.701-1.983 1.491-2.748 1.757-0.8928 0.3098-1.149 0.4856-0.7151 0.4911 0.372 0.0045 1.17-0.2235 1.774-0.5069zm-5.371-4.892c0.01374-0.6141-0.06029-1.013-0.1645-0.8867-0.2853 0.3466-0.3662 2.052-0.09594 2.026 0.1295-0.01253 0.2467-0.5252 0.2604-1.139zm6.443 2.099c0.793-0.9935 0.97-1.58 1.05-3.476 0.1009-2.391 0.3627-3.688 0.6022-2.986 0.07499 0.2201 0.2882 0.3485 0.4737 0.2851 0.1856-0.06323 0.107-0.2409-0.1747-0.3946-0.2817-0.1538-0.6234-0.3566-0.7592-0.4509-0.1359-0.09406-0.2349-0.04554-0.22 0.1078 0.03312 0.3421-0.6073 0.4818-3.175 0.6932-1.801 0.1483-2.102 0.2865-3.19 1.463l-1.201 1.3 1.158-1.031c1.288-1.146 2.394-1.43 3.846-0.9877 1.275 0.3891 2.193 1.843 2.109 3.337-0.07878 1.401-1.458 3.145-2.623 3.318-0.4634 0.06832-0.9736 0.2871-1.134 0.486-0.16 0.199 0.2888 0.1743 0.9974-0.0549 0.8883-0.2874 1.584-0.7879 2.242-1.612zm-3.36-0.3695c0.2568-0.3704 0.3215-0.793 0.1437-0.9394s-0.5568 0.01751-0.8422 0.3643c-0.3213 0.3901-0.3759 0.7483-0.1437 0.9394 0.2462 0.2028 0.5362 0.07746 0.8422-0.3643zm-1.609-1.011c0.08642-0.1049 0.3685-0.6775 0.6266-1.273 0.2583-0.5951 0.6926-1.226 0.9649-1.403 0.6433-0.4165 1.121 0.4081 0.6022 1.039-0.2359 0.2865-0.2167 0.6224 0.04824 0.8406 0.3434 0.2827 0.6121 0.152 1.211-0.5896 0.7248-0.8973 0.7235-0.9858-0.02269-1.514-1.416-1.003-3.55 0.07512-3.933 1.987-0.1378 0.6887 0.1931 1.289 0.503 0.9127zm2.65 0.7302c0.08515-0.2674-0.02382-0.2569-0.2778 0.02691-0.2298 0.2568-0.2929 0.4548-0.1401 0.4399 0.1528-0.0148 0.3408-0.2249 0.4177-0.467zm3.008 0.9774c0.1381-0.298-0.03339-0.2048-0.3811 0.207-0.3479 0.4119-0.4609 0.6556-0.2511 0.5416 0.2096-0.1138 0.494-0.4509 0.6324-0.7489zm-3.92-3.444c0.08515-0.2674-0.02381-0.2569-0.2778 0.02691-0.2299 0.2568-0.2929 0.4548-0.1401 0.4399 0.1528-0.0148 0.3408-0.2249 0.4177-0.467zm24.99 14.21c3.666-4.76 5.133-7.515 4.345-8.165-0.2556-0.2105-0.3572-0.7225-0.2256-1.138 0.2267-0.7158 0.216-0.7286-0.2043-0.2491-0.8281 0.9446-1.84 0.9279-3.418-0.05652-0.8268-0.5162-1.776-1.071-2.108-1.232-0.6701-0.3254-2.782-1.678-5.265-3.37-6.44-4.393-8.976-5.365-3.936-1.506 3.302 2.527 3.704 3.023 3.341 4.11-0.05456 0.1621 1.035 1.345 2.421 2.629 2.334 2.161 2.516 2.41 2.46 3.35-0.04386 0.7399 0.1719 1.206 0.7956 1.72 1.062 0.8747 1.008 1.493-0.4583 5.23-0.6041 1.538-1.074 2.817-1.045 2.842 0.02929 0.02446 1.511-1.849 3.292-4.165zm-19.58-12.34c-0.04548-0.4522-0.09828-0.447-0.2574 0.02492-0.1101 0.3267-0.08432 0.5828 0.05722 0.569 0.1416-0.01369 0.2316-0.281 0.2002-0.5938zm0.336-0.9858c0.1047-0.1271 0.0062-0.2966-0.2189-0.3765-0.2251-0.07995-0.4847-0.5159-0.5774-0.969-0.1641-0.8043-0.1678-0.8027-0.1583 0.06591 0.0098 0.9024 0.6063 1.702 0.9546 1.28zm-22.49-21.27c0.1439-0.4902 0.05974-0.5069-0.541-0.1085-1.231 0.8168-1.432 1.19-0.5014 0.9311 0.5175-0.1437 0.941-0.4782 1.042-0.8226zm22.33 18.89c0.1719-0.2087-0.2206-0.7299-0.4824-0.6408-0.1699 0.05787-0.1436 0.2412 0.05832 0.4074 0.2019 0.1663 0.3926 0.2712 0.4242 0.2332zm0.9555-0.4371c0.05835-0.5339 0.05568-1.012-0.0059-1.063-0.1236-0.1018-0.2619 0.551-0.2864 1.351-0.02811 0.9188 0.1832 0.7106 0.2923-0.2882zm2.717 2.237c1.265-0.6179 1.95-2.684 1.195-3.608-1.024-1.255-0.5233-2.724 2.831-8.31 1.683-2.803 3.392-5.68 3.794-6.395 0.4573-0.8081-1.273 1.124-4.58 5.114-4.078 4.921-5.355 6.62-5.481 7.299l-0.1643 0.8879 0.7428-0.3057c0.9784-0.4029 1.747 0.272 1.621 1.423-0.08235 0.7534-0.2558 0.9987-0.9456 1.335-0.7129 0.3482-0.8381 0.5503-0.8033 1.294 0.0561 1.201 0.8165 1.738 1.789 1.263zm3.685 3.011c0.4879 0.2011 2.517-2.176 2.329-2.728-0.07178-0.2106-0.8677-0.859-1.769-1.441-1.479-0.9552-1.651-0.9932-1.772-0.3901-0.07347 0.3672-0.5117 1.127-0.9739 1.688l-0.8403 1.021 1.315 0.8435c0.7235 0.4641 1.493 0.9169 1.71 1.006zm-14.78-14.54c1.381-1.274 1.424-1.536 0.4577-2.746l-0.6775-0.8474-1.245 1.512c-1.285 1.56-1.316 1.849-0.2968 2.753 0.4525 0.401 0.7026 0.3058 1.761-0.6714zm12.62 10.97c0.1381-0.298-0.03347-0.2048-0.3811 0.207-0.3479 0.4119-0.4609 0.6556-0.2511 0.5416 0.2096-0.1138 0.494-0.4509 0.6324-0.7489zm6.768 6.482c1.273 0.8255 1.653 0.9404 1.86 0.5626 0.2001-0.3653-0.1114-0.8297-1.35-2.013-1.341-1.281-1.604-1.7-1.569-2.511l0.04177-0.9729-0.5487 0.7669c-0.3018 0.4219-0.7953 1.103-1.097 1.513-0.4892 0.6659-0.4618 0.7927 0.2573 1.181 0.4428 0.2393 1.525 0.9018 2.405 1.472zm-31.51-28c0.6993-0.6907 1.407-1.549 1.573-1.908 0.2889-0.625 0.2576-0.6385-0.7525-0.327-1.637 0.5046-3.093 2.666-2.258 3.354 0.09156 0.07538 0.7386-0.428 1.438-1.118zm9.874 7.801 1.216-1.629-1.442-1.762c-0.79-0.97-1.65-1.83-1.91-1.92-0.33-0.11-0.83 0.29-1.71 1.35l-1.24 1.506 0.9568 1.022c0.8567 0.9153 1.762 1.868 2.617 2.756 0.2209 0.2292 0.6047-0.1064 1.512-1.322zm1.115-0.3653c0.3152-0.4969-0.03421-0.1657-0.7766 0.7357s-1 1.308-0.5732 0.9034c0.4271-0.4045 1.034-1.142 1.35-1.639zm24.49 22.81c0.1142-0.1387 0.03744-0.3923-0.1706-0.5635-0.208-0.1713-0.4535-0.3878-0.5455-0.4808-0.09198-0.0932-0.3084-0.08097-0.4808 0.02723-0.1725 0.1082-0.02044 0.438 0.3379 0.7331 0.3582 0.295 0.7447 0.4229 0.859 0.2842zm-30.75-26.67c0.4435-0.3621 1.122-1.041 1.507-1.509 0.6256-0.7599 0.6266-0.9124 0.0085-1.423-0.3807-0.3149-1.02-1.041-1.421-1.613-0.8316-1.187-0.7302-2.093 0.6273-5.597l0.8699-2.246-1.591 2.001c-1.418 1.783-1.562 2.094-1.325 2.854 0.2257 0.7248 0.0451 1.175-1.196 2.981-1.629 2.372-1.642 2.277 0.5751 4.216 1.087 0.9504 1.174 0.9652 1.945 0.3363zm24.98 19.68c0.198-0.3634-0.01608-0.2086-0.4757 0.3437-0.4596 0.5526-0.6215 0.8496-0.3598 0.6607 0.2617-0.1891 0.6376-0.6411 0.8358-1.004zm-4.3-3.302c0.1237-0.756-0.08284-0.6514-0.3617 0.183-0.0991 0.2966-0.08333 0.5297 0.03508 0.5185 0.1184-0.01146 0.2655-0.327 0.3267-0.7013zm-18.69-17.52c0.2577-0.4309-0.000251-0.2176-0.5732 0.4744s-0.7837 1.045-0.4686 0.7837c0.3152-0.2608 0.784-0.8268 1.042-1.258zm-4.08-4.86c0.07279-0.231-0.1012-0.1363-0.3868 0.2105-0.2855 0.3466-0.345 0.5355-0.1324 0.42 0.2127-0.1158 0.4464-0.3994 0.5191-0.6305zm-0.46-1.33c0.1142-0.1387-0.04251-0.1725-0.3482-0.07521-0.3057 0.09733-0.6495 0.2904-0.7634 0.429-0.1142 0.1387 0.04251 0.1725 0.3482 0.07522 0.3057-0.09733 0.6495-0.2904 0.7634-0.429zm8.223 7.129c-0.1138-0.2096-0.4509-0.494-0.7489-0.6324-0.298-0.1381-0.2048 0.03347 0.207 0.3811 0.4119 0.3479 0.6556 0.4609 0.5416 0.2511zm-2.06-2.13c-0.1158-0.2127-0.3994-0.4464-0.6305-0.5191-0.231-0.07279-0.1363 0.1012 0.2104 0.3868 0.3466 0.2855 0.5355 0.345 0.42 0.1324zm-1.449-1.591c-0.01479-0.1528-0.2249-0.3408-0.467-0.4177-0.2674-0.08515-0.2569 0.02382 0.02689 0.2778 0.2568 0.2298 0.4548 0.2929 0.4399 0.1401zm-1.28-1.39c0.04489-0.05453-0.03885-0.3117-0.1861-0.5716-0.1535-0.2709-0.2895-0.312-0.3189-0.09629-0.04921 0.3614 0.3366 0.8722 0.505 0.6678zm40.17 27.21 1.473-1.855-1.439 1.243c-1.321 1.14-1.976 2.081-1.641 2.356 0.07369 0.06069 0.7969-0.7245 1.607-1.744zm-9.51-28.13c0.07279-0.231-0.1012-0.1363-0.3868 0.2105-0.2855 0.3466-0.345 0.5355-0.1324 0.42 0.2127-0.1158 0.4464-0.3994 0.5191-0.6305zm4.602-7.669c0.429-0.6289-0.06029-0.1215-1.087 1.127-1.027 1.249-1.378 1.763-0.7801 1.143 0.598-0.6202 1.438-1.642 1.867-2.271zm1.739-1.087c0.3171-0.4995 0.01474-0.2282-0.672 0.6028-0.6865 0.831-0.9462 1.24-0.5764 0.9079 0.3695-0.3315 0.9314-1.012 1.248-1.511z"/>
</svg>
