<?xml version="1.0" encoding="UTF-8" standalone="no"?>
<!-- Created with Inkscape (http://www.inkscape.org/) -->

<svg
   xmlns:dc="http://purl.org/dc/elements/1.1/"
   xmlns:cc="http://creativecommons.org/ns#"
   xmlns:rdf="http://www.w3.org/1999/02/22-rdf-syntax-ns#"
   xmlns:svg="http://www.w3.org/2000/svg"
   xmlns="http://www.w3.org/2000/svg"
   xmlns:sodipodi="http://sodipodi.sourceforge.net/DTD/sodipodi-0.dtd"
   xmlns:inkscape="http://www.inkscape.org/namespaces/inkscape"
   height="100"
   viewBox="0 0 100 100.01556"
   width="100"
   version="1.1"
   id="svg2"
   inkscape:version="0.91 r13725"
   sodipodi:docname="swordfish.svg">
  <metadata
     id="metadata10">
    <rdf:RDF>
      <cc:Work
         rdf:about="">
        <dc:format>image/svg+xml</dc:format>
        <dc:type
           rdf:resource="http://purl.org/dc/dcmitype/StillImage" />
        <dc:title></dc:title>
      </cc:Work>
    </rdf:RDF>
  </metadata>
  <defs
     id="defs8" />
  <sodipodi:namedview
     pagecolor="#ffffff"
     bordercolor="#666666"
     borderopacity="1"
     objecttolerance="10"
     gridtolerance="10"
     guidetolerance="10"
     inkscape:pageopacity="0"
     inkscape:pageshadow="2"
     inkscape:window-width="1366"
     inkscape:window-height="710"
     id="namedview6"
     showgrid="false"
     inkscape:zoom="1.5527222"
     inkscape:cx="121.25"
     inkscape:cy="160.60001"
     inkscape:window-x="0"
     inkscape:window-y="32"
     inkscape:window-maximized="1"
     inkscape:current-layer="svg2" />
  <path
     style="fill:#202020"
     d="m 15.715822,90.715496 c 0.226973,-0.07933 0.229378,-0.295153 0.0055,-0.479568 -0.224026,-0.184464 -0.16051,-0.64057 0.141032,-1.01313 0.468571,-0.579213 0.425033,-0.638606 -0.299523,-0.408001 -0.74954,0.238556 -0.792243,0.200907 -0.368584,-0.324114 0.279101,-0.345908 0.118203,-0.944901 -0.385274,-1.434776 C 14.333479,86.593469 13.48022,85.072349 12.913279,83.67586 12.346339,82.279369 11.267434,80.296304 10.51544,79.269428 9.3300178,77.649598 9.2544258,77.239732 9.9440818,76.176043 10.4585,75.382816 11.052928,75.00682 11.628214,75.110391 c 0.573322,0.103515 1.326789,-0.37099 2.121488,-1.336115 0.677873,-0.823168 1.498097,-1.460302 1.822554,-1.416125 0.324604,0.04418 2.01399,0.902197 3.754571,1.906492 l 3.16407,1.825991 3.253895,-3.434041 c 4.375507,-4.61799 5.330715,-6.302614 5.541784,-9.787704 0.231391,-3.765861 2.398823,-7.210701 5.747944,-9.129954 1.208492,-0.693092 2.466562,-1.231072 2.795927,-1.195239 0.329315,0.03569 -0.156333,-0.752975 -1.079397,-1.752362 -0.923058,-0.999387 -2.12345,-2.426309 -2.667812,-3.170942 -0.5959,-0.814332 -1.019021,-1.140262 -1.062708,-0.81826 -0.04007,0.294417 -0.342667,0.313119 -0.672474,0.04158 -0.329831,-0.271545 -0.45716,-0.666587 -0.282954,-0.878147 0.174204,-0.211511 -0.256767,-0.857038 -0.957665,-1.433796 -0.700943,-0.57725 -2.966253,-2.851392 -5.036199,-5.055835 -7.461038,-7.946987 -8.673456,-9.031784 -9.954596,-8.904161 -0.642532,0.06224 -1.201128,0.353221 -1.241378,0.646461 -0.03995,0.293433 -0.251468,0.386255 -0.470047,0.206258 -0.459098,-0.37806 -3.636764,0.867344 -3.202356,1.255123 0.158787,0.141561 -0.159433,0.184365 -0.707326,0.09513 -0.547895,-0.08924 -1.329732,0.243317 -1.738126,0.739231 -0.687202,0.834949 -1.3856922,0.892379 -2.4243462,0.200811 -0.510983,-0.340509 2.0478572,-3.539576 2.7954342,-3.494417 0.295153,0.01772 1.700821,-1.339552 3.123819,-3.01632 1.449011,-1.707695 2.662412,-2.828324 2.757638,-2.547552 0.0942,0.2765 0.470831,-0.04839 0.840349,-0.724998 0.368388,-0.674438 1.639956,-1.921216 2.825868,-2.770891 1.185913,-0.849674 3.346668,-3.03252 4.801571,-4.851638 1.966375,-2.457725 2.289359,-3.020248 1.257576,-2.19119 -1.073505,0.862438 -0.896305,0.53209 0.779484,-1.456865 1.817645,-2.15683 2.313411,-2.513684 3.068843,-2.210824 0.495766,0.198845 0.915449,0.507546 0.932629,0.685727 0.01726,0.178281 -0.851638,2.262856 -1.930544,4.631736 -1.835316,4.029941 -2.896061,7.313781 -2.342865,7.254877 0.267764,-0.02891 2.7812,2.613817 5.306174,5.581052 0.902197,1.059762 2.6899,2.944655 3.972512,4.188489 1.28261,1.244324 3.227389,3.291202 4.32102,4.54927 2.491104,2.864646 6.965272,6.587311 7.642655,6.356608 0.710763,-0.242041 6.449871,-5.237452 9.002333,-7.838998 2.910785,-2.962328 8.398575,-8.261137 11.38299,-10.990305 1.363113,-1.246779 5.747944,-6.24371 9.748436,-11.098293 4.294024,-5.2178202 7.745735,-9.0759623 8.428028,-9.4293793 1.03571,-0.5330722 1.022456,-0.4581169 -0.125713,0.7254878 -0.70438,0.7259786 -1.074486,1.3483861 -0.821695,1.3827462 0.252448,0.034367 0.853602,-0.3941581 1.335625,-0.9522635 0.849673,-0.9836793 0.865381,-0.9792611 0.511472,0.1374338 -0.200711,0.6336973 -0.677873,1.3297321 -1.060743,1.5466918 -0.382771,0.2168619 -0.547307,0.5163829 -0.365886,0.6651131 0.181521,0.1489722 -1.438212,2.3001591 -3.598969,4.7809551 -2.422873,2.7812 -3.784513,4.628789 -3.552338,4.820223 0.23036,0.189716 -1.193275,2.155356 -3.659834,5.050926 -2.220151,2.608418 -3.882194,4.870291 -3.692723,5.026384 0.189324,0.155902 -0.342717,0.879616 -1.182477,1.608049 -1.006259,0.872745 -1.383728,1.44214 -1.106884,1.669898 0.2309,0.190158 -0.0045,0.79519 -0.522764,1.344459 -2.196588,2.326666 -3.527303,4.42901 -2.860227,4.519819 0.482366,0.06568 0.281457,0.433624 -0.714691,1.309118 -0.762301,0.670021 -1.234506,1.342496 -1.049453,1.494661 0.184907,0.152272 -0.260842,0.801571 -0.990551,1.443123 -0.886489,0.778991 -1.176586,1.289974 -0.874709,1.538839 0.308653,0.254166 0.02008,0.733831 -0.908578,1.510368 -0.852127,0.712726 -1.210455,1.261996 -0.957663,1.470119 0.246018,0.202578 -0.114025,0.786846 -0.923794,1.498098 -0.904159,0.794698 -1.17855,1.288502 -0.861456,1.549639 0.317094,0.261136 0.08188,0.684745 -0.738249,1.32826 -0.757395,0.594428 -1.049454,1.072033 -0.788318,1.28703 0.228347,0.187997 0.193742,0.522762 -0.07687,0.743649 -0.297804,0.243072 -0.09753,0.696037 0.507546,1.147135 0.831514,0.620444 14.254511,9.237942 17.096576,10.975579 0.472108,0.288772 2.011044,1.264451 3.419807,2.167627 1.408762,0.90367 2.83814,1.675298 3.176341,1.714567 0.793225,0.09277 6.351699,-3.249969 6.297704,-3.78844 -0.0218,-0.224861 0.307326,-0.475297 0.731378,-0.556632 0.424004,-0.08118 1.364585,-0.785373 2.090073,-1.565346 1.185421,-1.273775 2.734568,-1.789667 3.543012,-1.17904 0.164191,0.123889 -1.506443,2.442017 -3.712358,5.149097 -2.779728,3.413916 -3.704012,4.781938 -3.011903,4.457479 0.913485,-0.428223 0.92134,-0.403975 0.09237,0.283373 -0.498712,0.413352 -1.341514,1.751871 -1.873113,2.975089 -1.342005,3.086023 -12.438335,17.072034 -13.292429,16.748067 -0.656768,-0.247245 -0.650385,-0.273605 1.814212,-7.372684 l 1.655662,-4.767701 -3.678488,-2.842558 C 70.2926,73.821933 68.483298,72.63602 68.295299,72.75039 c -0.188342,0.114175 -0.887471,-0.359357 -1.553565,-1.052399 -0.666093,-0.693043 -1.35084,-1.090195 -1.522149,-0.882562 -0.180635,0.219364 -1.18935,-0.443687 -2.407658,-1.582526 -1.586453,-1.48288 -1.987482,-1.71113 -1.647318,-0.93852 0.404171,0.918887 0.369418,0.924777 -0.345319,0.05577 -1.170204,-1.422505 -5.595779,-4.238066 -5.679224,-3.614675 -0.04295,0.315327 -0.644496,-0.09808 -1.462265,-1.004787 -0.996441,-1.104921 -1.682171,-1.511841 -2.424837,-1.440176 -1.092159,0.105736 -1.964905,1.633575 -1.008224,1.764142 0.307081,0.04183 0.32539,0.276353 0.0407,0.521292 -0.284698,0.244889 -0.919377,1.208492 -1.410235,2.141612 -1.118664,2.126396 -4.064302,4.349 -6.587311,4.972389 -1.03571,0.255492 -2.618726,1.159407 -3.517978,2.008099 -0.899251,0.849183 -1.868204,1.45392 -2.152902,1.34495 -0.315375,-0.121287 -0.47785,0.209302 -0.416149,0.846731 0.06391,0.660203 -0.547797,1.862804 -1.658608,3.261258 -3.047736,3.836054 -3.098295,4.26359 -0.80108,6.764021 2.102834,2.288378 2.437108,3.641673 1.262976,5.109829 -0.371087,0.464547 -0.42459,1.160879 -0.121485,1.58007 0.39038,0.539944 0.213229,1.200149 -0.633697,2.361517 -1.432322,1.964414 -2.732605,2.092037 -4.613082,0.451638 -0.917903,-0.800589 -1.258558,-0.920357 -1.08136,-0.381199 0.195362,0.594429 0.04256,0.612099 -0.623389,0.07097 -0.485114,-0.394308 -1.194256,-0.539944 -1.576144,-0.323525 -0.381544,0.216174 -0.762793,0.189864 -0.847711,-0.05851 -0.08463,-0.248373 -0.652841,-0.403287 -1.262486,-0.344287 -0.609645,0.059 -1.009693,-0.01277 -0.888942,-0.159533 0.120855,-0.146767 -0.171262,-0.265358 -0.648915,-0.263493 -0.47785,0.002 -0.88747,-0.187704 -0.91005,-0.421155 -0.02261,-0.233452 -0.759357,-0.440594 -1.63701,-0.46023 -0.877655,-0.01963 -1.580563,0.125017 -1.56142,0.321415 0.01901,0.196441 -0.71567,-0.297461 -1.632592,-1.097559 -0.916921,-0.800092 -1.481408,-1.51969 -1.254632,-1.598717 z m 3.113511,0.989569 c -0.290489,-0.40157 -0.896307,-0.900232 -1.345932,-1.108357 -0.449822,-0.208074 -0.212149,0.120457 0.528163,0.729905 0.740312,0.60945 1.108356,0.779974 0.817769,0.378354 z m 4.24101,0.30659 c 0.710763,-0.448841 -1.059761,-2.412566 -2.324701,-2.578967 -0.801079,-0.105238 -1.15008,-0.409227 -1.430851,-1.245305 -0.204098,-0.608174 -0.633207,-1.321881 -0.953245,-1.585472 -0.807953,-0.665112 -1.602652,0.452474 -0.964046,1.356241 0.973862,1.377837 5.163825,4.374032 5.674317,4.053503 z m -6.75911,-6.430237 c 0.508528,-0.617499 0.376978,-0.980243 -0.665604,-1.838753 -1.88833,-1.555037 -1.693459,-2.517611 1.146644,-5.664499 l 2.452816,-2.719352 -1.280156,-0.796663 c -1.616886,-1.006257 -2.955455,-0.72156 -4.30335,0.91545 -0.647933,0.787336 -1.351823,1.186403 -1.817156,1.030801 -1.429868,-0.47785 -1.595287,0.739233 -0.30276,2.229478 0.705852,0.813351 1.800955,2.745857 2.433671,4.294022 1.382256,3.381521 1.524605,3.53663 2.335993,2.551479 z m 8.531107,7.667199 c 0.486146,0.05625 0.710763,-0.0403 0.499203,-0.214456 -0.211511,-0.174156 -0.782428,-0.362696 -1.268376,-0.418948 -0.486146,-0.05625 -0.710763,0.0403 -0.499203,0.214457 0.211511,0.174156 0.782427,0.362694 1.268376,0.418947 z m -0.570868,-7.721193 0.956682,-1.965395 -2.078782,2.48325 c -1.707203,2.039514 -1.878022,2.390477 -0.956682,1.965394 0.784391,-0.362008 1.409744,-1.108848 2.078782,-2.483249 z m -0.719106,-1.92269 c 3.003068,-4.138913 4.075592,-4.928212 4.249355,-3.134619 0.05875,0.607192 0.650387,1.551603 1.315008,2.098418 1.029329,0.847711 1.293901,0.853111 1.790158,0.0376 0.415904,-0.683765 0.250879,-1.523623 -0.578229,-2.942202 -0.638116,-1.091668 -1.112775,-2.361026 -1.055344,-2.82096 0.05763,-0.459736 1.198183,-2.169101 2.534298,-3.798748 2.462633,-3.002577 2.980488,-4.608663 1.019021,-3.160632 -0.781446,0.576758 -1.223709,0.584611 -1.625722,0.02891 -0.466511,-0.644987 -0.84133,-0.487813 -2.411583,1.011659 -1.022948,0.976806 -2.751749,2.85581 -3.841945,4.176708 -1.657625,2.007117 -2.100869,2.319303 -2.703152,1.904529 -0.396319,-0.273066 -0.02729,0.248667 0.820222,1.159405 l 1.540803,1.655664 -2.559331,2.834213 c -2.26531,2.508773 -2.495031,2.922566 -1.999265,3.603387 0.308161,0.422873 0.610136,0.843783 0.671003,0.935083 0.06096,0.09135 1.337096,-1.523623 2.835685,-3.589151 z m 6.469506,10.023315 c 0.309877,-0.105587 0.620934,-0.0217 0.691128,0.186429 0.07034,0.208123 0.872744,-0.65137 1.782794,-1.909437 0.910541,-1.258068 1.561418,-2.577986 1.44705,-2.933366 -0.114324,-0.35494 -1.743527,-1.914346 -3.620567,-3.465456 l -3.412444,-2.819978 -1.224689,1.98552 c -0.673457,1.092159 -1.560928,2.394404 -1.972267,2.893605 -0.726469,0.882073 -0.656277,0.982698 2.498956,3.580808 1.78525,1.470119 3.499817,2.58682 3.809548,2.481286 z M 19.733493,82.976436 c 0.588048,-0.713707 1.597741,-1.729293 2.243712,-2.256964 1.170695,-0.9557 1.168732,-0.963555 -0.617008,-2.38557 l -1.792123,-1.426431 -1.989937,2.416492 -1.989938,2.416493 1.538348,1.266904 c 1.490735,1.227635 1.571236,1.226653 2.606946,-0.03122 z m 12.83593,2.646214 c -0.173616,-0.319745 -0.687691,-0.753467 -1.142225,-0.964535 -0.454487,-0.210627 -0.312433,0.05105 0.31567,0.581176 0.628297,0.530617 0.999877,0.702908 0.826114,0.382966 z m 0.07682,-8.923795 c 1.020494,-1.238925 1.269359,-1.832862 0.838876,-1.998282 -0.765247,-0.294662 -1.815192,0.548289 -2.512209,2.016445 -0.88698,1.869676 0.127519,1.858877 1.672842,-0.01787 z m 2.932876,-4.345563 c 0.338102,-0.410554 0.441625,-0.888944 0.230113,-1.063198 -0.211511,-0.174157 -0.749049,0.126193 -1.195238,0.667566 -0.459639,0.558106 -0.559087,1.01853 -0.230114,1.063199 0.319156,0.04343 0.857038,-0.256915 1.195239,-0.667567 z m -2.441041,-7.186158 c 0.203558,-0.691618 0.380022,-2.036078 0.392098,-2.987851 0.03266,-2.567187 2.469013,-5.875567 5.203091,-7.063442 1.168242,-0.508039 2.612346,-0.825624 3.209229,-0.706345 0.596882,0.119479 2.204441,-0.103614 3.571481,-0.495766 l 2.486195,-0.712726 4.48104,-5.639955 c 2.464601,-3.102714 7.71138,-9.660082 11.657875,-14.573569 7.461039,-9.291937 7.372684,-9.390108 -0.993495,-1.140754 C 51.374823,43.455513 48.709465,45.576019 47.177989,44.559943 45.109515,43.190449 40.448328,38.645107 38.244376,35.852126 37.558648,34.982817 36.637799,34.20628 36.1975,34.126761 c -0.502147,-0.09072 0.210136,0.99006 1.913363,2.902442 3.774698,4.238066 3.802184,4.50951 0.748068,7.294147 l -2.474905,2.255982 1.033256,1.153025 c 0.568412,0.634188 1.753343,1.91729 2.633452,2.850902 1.198183,1.271812 1.493679,1.927598 1.177076,2.612345 -0.244251,0.528164 -0.771629,0.851639 -1.248741,0.765248 -0.454141,-0.08203 -1.066144,0.06681 -1.359677,0.330739 -0.293779,0.263934 -0.853602,0.587066 -1.244815,0.718126 -0.390772,0.131018 -1.571727,1.088722 -2.624616,2.12836 -1.812247,1.789175 -1.926617,2.077799 -2.152411,5.41416 -0.130969,1.938887 -0.444276,3.816418 -0.696037,4.172291 -0.415118,0.586575 -0.395877,0.602773 0.205277,0.174205 0.364757,-0.260056 0.82955,-1.038654 1.033255,-1.730765 z M 44.432719,50.303961 c 0.305215,-0.643515 1.023439,-1.362621 1.595778,-1.598233 0.826605,-0.340312 1.125047,-0.223978 1.449994,0.565469 0.600319,1.458338 0.420272,1.915326 -1.02982,2.610872 -1.66008,0.796171 -2.74144,-0.04997 -2.016443,-1.578108 z m -9.414652,16.517364 c -0.08742,0.698491 -0.02987,0.736777 0.371628,0.249307 0.261285,-0.317291 0.518346,-0.976808 0.57136,-1.465702 0.140285,-1.294391 -1.208983,-0.761811 -2.020862,0.797644 -0.626335,1.203093 -0.624372,1.206528 0.274879,0.4027 0.698001,-0.62388 0.882564,-0.619953 0.803044,0.01591 z m 4.166401,2.370352 c 0.49076,-0.890907 0.717142,-1.603142 0.502638,-1.582525 -0.214259,0.02076 -0.791262,0.766719 -1.282121,1.657627 -0.49076,0.890907 -0.717142,1.60314 -0.502638,1.582525 0.214259,-0.02077 0.791264,-0.766719 1.282121,-1.657627 z m -1.495153,-0.625844 c 1.317462,-0.97288 1.317953,-1.148115 0.0041,-1.755798 -0.699473,-0.323425 -1.274268,-0.181961 -1.786232,0.43976 -1.083814,1.31599 0.348853,2.374278 1.781814,1.31599 z m 6.062094,1.231563 c 0.92134,-0.432348 2.343355,-1.643882 3.160142,-2.692354 l 1.485336,-1.906493 -2.068967,1.943306 c -1.137807,1.069089 -3.024174,2.274635 -4.191434,2.679592 -1.361639,0.472451 -1.752853,0.740705 -1.090686,0.749049 0.567433,0.007 1.784759,-0.340948 2.706099,-0.7731 z m -8.192417,-7.461039 c 0.02096,-0.936556 -0.09194,-1.54522 -0.250827,-1.352312 -0.435196,0.528653 -0.558597,3.129709 -0.14632,3.089949 0.197472,-0.0191 0.376192,-0.80108 0.397152,-1.737637 z m 9.826973,3.200884 c 1.209474,-1.515278 1.479446,-2.40913 1.601669,-5.301263 0.153929,-3.646584 0.553197,-5.62523 0.918394,-4.553688 0.114373,0.335648 0.439564,0.531598 0.722544,0.434899 0.283126,-0.09645 0.163262,-0.367358 -0.26639,-0.601791 -0.429647,-0.23463 -0.950791,-0.543871 -1.157933,-0.687692 -0.20724,-0.143469 -0.358228,-0.06946 -0.335599,0.164489 0.05051,0.521781 -0.926249,0.734813 -4.842803,1.057307 -2.74733,0.226237 -3.206283,0.436913 -4.865873,2.231931 l -1.832371,1.982083 1.765614,-1.571727 c 1.963922,-1.747943 3.651981,-2.181372 5.865751,-1.506441 1.944288,0.593447 3.344705,2.810161 3.21659,5.090193 -0.120159,2.136706 -2.224076,4.797155 -4.00098,5.060744 -0.706836,0.104211 -1.484845,0.437845 -1.728803,0.741196 -0.244103,0.303448 0.440496,0.265897 1.52117,-0.08374 1.354767,-0.438336 2.416492,-1.20162 3.419804,-2.458216 z M 40.26141,64.973736 c 0.391705,-0.564977 0.490317,-1.209474 0.219168,-1.432813 -0.271151,-0.223292 -0.849185,0.02671 -1.284575,0.55565 -0.489973,0.59492 -0.573322,1.141244 -0.219168,1.432815 0.375556,0.309289 0.817769,0.118153 1.284575,-0.555652 z m -2.454779,-1.541783 c 0.131797,-0.160014 0.562031,-1.033257 0.955698,-1.940852 0.393964,-0.907596 1.056327,-1.870168 1.471593,-2.139159 0.981224,-0.635169 1.710148,0.622408 0.918395,1.583998 -0.359849,0.437011 -0.330446,0.949319 0.07357,1.282121 0.523745,0.431219 0.933611,0.231782 1.846605,-0.899251 1.105412,-1.368512 1.103449,-1.503497 -0.0346,-2.308995 -2.160265,-1.530004 -5.414161,0.114572 -5.998281,3.030065 -0.210236,1.050435 0.294465,1.965884 0.76721,1.392073 z m 4.041231,1.113755 c 0.129874,-0.407903 -0.03632,-0.391802 -0.423708,0.04103 -0.350522,0.391704 -0.446681,0.693581 -0.21367,0.671001 0.233009,-0.02258 0.519818,-0.343011 0.637132,-0.712233 z m 4.587066,1.490736 c 0.210627,-0.454485 -0.05094,-0.312431 -0.581176,0.31567 -0.530617,0.628297 -0.702908,0.999877 -0.382967,0.826114 0.319745,-0.173617 0.753467,-0.687693 0.964536,-1.142227 z m -5.978647,-5.252178 c 0.129874,-0.407904 -0.03631,-0.391803 -0.423709,0.04103 -0.35057,0.391654 -0.446681,0.693581 -0.21367,0.671001 0.23301,-0.02258 0.519817,-0.34301 0.637134,-0.712235 z m 38.120013,21.666461 c 5.59087,-7.259786 7.829182,-11.461529 6.62658,-12.453061 -0.389839,-0.321021 -0.544851,-1.101977 -0.344042,-1.735182 0.34576,-1.091668 0.329513,-1.111302 -0.311645,-0.379973 -1.262978,1.440667 -2.805744,1.415143 -5.21291,-0.08619 -1.261014,-0.787334 -2.708062,-1.633083 -3.215118,-1.879003 -1.021967,-0.496257 -4.243466,-2.558841 -8.030434,-5.13928 -9.822063,-6.700209 -13.690023,-8.182599 -6.00319,-2.296233 5.0362,3.854705 5.649773,4.610135 5.095104,6.268253 -0.08321,0.247246 1.578599,2.051787 3.693213,4.010309 3.559701,3.2966 3.837526,3.675542 3.752609,5.109829 -0.06691,1.128482 0.262117,1.839734 1.213399,2.623144 1.620322,1.334151 1.537857,2.277579 -0.698981,7.976439 -0.92134,2.346299 -1.638482,4.296968 -1.593815,4.334273 0.04466,0.0373 2.305069,-2.819977 5.021474,-6.3517 z M 48.7076,63.650875 c -0.06936,-0.689655 -0.149901,-0.681802 -0.392588,0.038 -0.167923,0.498219 -0.128598,0.888942 0.08727,0.867835 0.215927,-0.02086 0.353269,-0.428518 0.305264,-0.905632 z m 0.512456,-1.503497 c 0.159681,-0.193889 0.0094,-0.452326 -0.333833,-0.574304 -0.343257,-0.121933 -0.739232,-0.786846 -0.880599,-1.477973 -0.250289,-1.226654 -0.255934,-1.224199 -0.241453,0.10053 0.01509,1.376365 0.924775,2.596147 1.455885,1.951651 z M 14.933641,29.686952 c 0.219511,-0.747576 0.0911,-0.7731 -0.825133,-0.165418 -1.877531,1.245797 -2.183825,1.814211 -0.764757,1.420051 0.7893,-0.219118 1.43527,-0.729415 1.58989,-1.254633 z M 48.99426,58.505213 c 0.262119,-0.318321 -0.336433,-1.113265 -0.735795,-0.977299 -0.259075,0.08826 -0.219022,0.367948 0.08894,0.621426 0.307964,0.253628 0.598846,0.413646 0.646951,0.355627 z m 1.457356,-0.666586 c 0.08899,-0.814332 0.08491,-1.543747 -0.009,-1.620811 -0.18849,-0.155206 -0.399509,0.840348 -0.436814,2.060621 -0.04286,1.401398 0.279347,1.083814 0.445796,-0.439612 z m 4.143332,3.411953 c 1.930052,-0.942447 2.973615,-4.093753 1.822554,-5.502516 -1.561419,-1.913363 -0.798134,-4.15511 4.317094,-12.673948 2.567187,-4.27537 5.173642,-8.66364 5.787213,-9.753344 0.697509,-1.232544 -1.941833,1.715058 -6.984906,7.799731 -6.219168,7.505215 -8.167872,10.096945 -8.359308,11.132654 l -0.250532,1.354278 1.132898,-0.466315 c 1.492207,-0.614555 2.664377,0.414775 2.472452,2.171064 -0.125614,1.149097 -0.390085,1.52313 -1.442141,2.036567 -1.087251,0.53111 -1.278194,0.839368 -1.225182,1.974231 0.08556,1.831881 1.245308,2.651123 2.728188,1.926617 z m 5.620321,4.592956 c 0.74414,0.306787 3.83949,-3.318198 3.552829,-4.160019 -0.109467,-0.321169 -1.323353,-1.310099 -2.697756,-2.197571 -2.256471,-1.456866 -2.51859,-1.514787 -2.702662,-0.594919 -0.112069,0.560068 -0.780463,1.718494 -1.485336,2.574549 l -1.281628,1.556509 2.006135,1.286539 c 1.103449,0.707817 2.277088,1.398454 2.608418,1.534912 z M 37.684897,43.656764 c 2.10578,-1.942814 2.172537,-2.343355 0.698001,-4.188488 l -1.033257,-1.29243 -1.899129,2.306051 c -1.959504,2.379187 -2.007116,2.820469 -0.452717,4.198797 0.690146,0.61161 1.071542,0.466414 2.686463,-1.02393 z M 56.93634,60.390106 c 0.210627,-0.454485 -0.05105,-0.312431 -0.581176,0.315671 -0.530619,0.628298 -0.702908,0.999877 -0.382968,0.826113 0.319745,-0.173615 0.753467,-0.687691 0.964535,-1.142225 z m 10.322738,9.885876 c 1.941833,1.25905 2.521045,1.434286 2.837158,0.858019 0.305216,-0.557124 -0.169935,-1.265432 -2.05964,-3.069824 -2.045894,-1.953614 -2.445944,-2.593201 -2.39244,-3.829182 l 0.06371,-1.483863 -0.836914,1.169715 c -0.460227,0.643514 -1.212909,1.681679 -1.672843,2.307521 -0.746104,1.015586 -0.704382,1.208983 0.392489,1.801449 0.675422,0.364952 2.326175,1.375383 3.668673,2.245674 z M 19.204103,27.571356 c 1.066633,-1.053381 2.146031,-2.362498 2.399313,-2.909314 0.440692,-0.953245 0.392932,-0.973861 -1.147626,-0.49871 -2.496993,0.769664 -4.717143,4.065773 -3.444349,5.114736 0.139655,0.114953 1.126519,-0.652841 2.193153,-1.705731 z m 15.059515,11.898392 1.85397,-2.484721 -2.200024,-2.687447 c -1.209965,-1.477974 -2.521537,-2.794944 -2.914713,-2.926494 -0.504603,-0.168659 -1.269358,0.435194 -2.604982,2.057185 l -1.890785,2.296233 1.459321,1.558963 c 1.306663,1.396 2.686954,2.848939 3.991655,4.202724 0.336973,0.349639 0.922321,-0.162284 2.305558,-2.016443 z m 1.701314,-0.557124 c 0.480795,-0.757884 -0.05217,-0.252693 -1.18444,1.122101 -1.132262,1.374795 -1.525586,1.994847 -0.874218,1.377837 0.651368,-0.617008 1.577617,-1.742053 2.058658,-2.499938 z m 37.354275,34.791999 c 0.174158,-0.211511 0.0571,-0.598355 -0.260202,-0.859492 -0.317292,-0.261283 -0.691619,-0.591484 -0.832005,-0.733341 -0.140285,-0.142158 -0.470291,-0.123508 -0.733341,0.04153 -0.263051,0.16497 -0.03117,0.668057 0.5154,1.118173 0.546325,0.449969 1.135846,0.644987 1.3101,0.433525 z M 26.398113,33.012514 c 0.676403,-0.552215 1.711132,-1.587925 2.298689,-2.301632 0.954226,-1.158915 0.9557,-1.391583 0.01293,-2.171064 -0.580685,-0.480206 -1.556019,-1.587433 -2.167629,-2.46067 -1.268376,-1.810773 -1.113756,-3.192047 0.956683,-8.536016 l 1.326788,-3.425205 -2.42631,3.051662 c -2.162229,2.719352 -2.382133,3.193031 -2.020861,4.353418 0.344237,1.105412 0.06877,1.792612 -1.823537,4.547307 -2.485213,3.61762 -2.504847,3.473308 0.877163,6.430236 1.658607,1.449503 1.790648,1.472081 2.965762,0.512946 z m 38.100381,30.011045 c 0.301975,-0.554178 -0.02454,-0.318175 -0.725488,0.524236 -0.700945,0.842802 -0.947847,1.295864 -0.54878,1.007731 0.399069,-0.288429 0.97239,-0.977789 1.274759,-1.531967 z m -6.55786,-5.036201 c 0.188636,-1.153025 -0.126343,-0.993496 -0.551724,0.279151 -0.151144,0.452324 -0.127089,0.807951 0.0535,0.790771 0.180587,-0.01747 0.404861,-0.49871 0.498221,-1.069579 z M 29.426706,31.284695 c 0.392981,-0.657258 -3.83e-4,-0.33187 -0.874217,0.723523 -0.873835,1.055394 -1.195239,1.593325 -0.71469,1.19524 0.480796,-0.39784 1.19573,-1.261014 1.588907,-1.918763 z m -6.214259,-7.411952 c 0.111025,-0.35224 -0.154376,-0.207828 -0.59001,0.321021 -0.435441,0.528655 -0.5262,0.816788 -0.20189,0.640569 0.324408,-0.176561 0.680819,-0.609154 0.791753,-0.96159 z M 22.50463,21.838138 c 0.174157,-0.21151 -0.06484,-0.263148 -0.531107,-0.114721 -0.466315,0.148441 -0.990551,0.442949 -1.164315,0.654314 -0.174156,0.21151 0.06484,0.263148 0.531108,0.114721 0.466315,-0.148442 0.990551,-0.442951 1.164314,-0.654314 z m 12.541416,10.872498 c -0.173616,-0.319745 -0.687691,-0.753467 -1.142226,-0.964535 -0.454486,-0.210627 -0.31243,0.05105 0.31567,0.581176 0.628298,0.530617 0.999878,0.702908 0.826115,0.382966 z m -3.149835,-3.243097 c -0.176561,-0.324408 -0.609154,-0.680819 -0.96159,-0.791753 -0.35224,-0.111024 -0.207828,0.154377 0.320972,0.59001 0.528654,0.43544 0.816787,0.526199 0.64057,0.201891 z M 29.68686,27.040248 c -0.02256,-0.233059 -0.343011,-0.519818 -0.712233,-0.637132 -0.407903,-0.129874 -0.391803,0.03632 0.04101,0.423707 0.391705,0.350522 0.693581,0.44668 0.671002,0.213671 z m -1.953613,-2.117561 c 0.06847,-0.08316 -0.05925,-0.475395 -0.283765,-0.871762 -0.23409,-0.413156 -0.441576,-0.475838 -0.486342,-0.146867 -0.07505,0.551233 0.513437,1.330224 0.770156,1.01853 z m 61.259049,41.502024 2.246656,-2.828813 -2.195116,1.895202 c -2.014481,1.739109 -3.013375,3.173395 -2.502392,3.59406 0.112401,0.09257 1.215364,-1.104919 2.450852,-2.660449 z M 74.502175,23.513927 c 0.111025,-0.35224 -0.154377,-0.20783 -0.590012,0.321021 -0.435439,0.528652 -0.526199,0.816786 -0.201888,0.640569 0.324406,-0.176562 0.680819,-0.609155 0.791753,-0.96159 z m 7.019266,-11.697141 c 0.654313,-0.959137 -0.09194,-0.185298 -1.658608,1.719474 -1.566327,1.904529 -2.101853,2.68941 -1.18984,1.743527 0.912015,-0.945882 2.193644,-2.503865 2.847958,-3.463001 z m 2.651613,-1.657626 c 0.483595,-0.7618114 0.02248,-0.3480184 -1.024911,0.919376 -1.046998,1.267394 -1.443121,1.890784 -0.879125,1.38471 0.563505,-0.505584 1.420541,-1.542767 1.904036,-2.304086 z"
     id="path4"
     inkscape:connector-curvature="0" />
</svg>
